<?xml version="1.0" encoding="UTF-8"?>
<!-- Generator: visioncortex VTracer 0.6.3 -->
<svg version="1.1" xmlns="http://www.w3.org/2000/svg" width="1280" height="1280">
<path d="M0 0 C14.06 11.59 23.68 26.25 26.19 44.56 C26.56 49.56 26.68 54.55 26.69 59.56 C26.69 60.25 26.69 60.93 26.69 61.64 C26.66 73.17 25.34 83.14 20.19 93.56 C19.69 94.58 19.69 94.58 19.18 95.62 C12.29 109.36 3.18 122.82 -7.81 133.56 C-8.6 134.36 -9.39 135.17 -10.21 135.99 C-14.71 140.54 -19.26 144.94 -24.12 149.09 C-25.54 150.33 -26.88 151.65 -28.19 153 C-29.81 154.56 -29.81 154.56 -31.81 154.56 C-31.81 155.22 -31.81 155.88 -31.81 156.56 C-31.03 156.75 -30.25 156.93 -29.44 157.12 C-14.31 163.12 -1.03 177.38 6.08 191.75 C9.73 201.04 10.67 209.12 10.56 219.12 C10.56 219.79 10.55 220.45 10.55 221.13 C10.48 231.55 9.81 241.47 7.19 251.56 C6.93 252.59 6.68 253.62 6.41 254.68 C2.16 269.38 -6.69 281.39 -16.81 292.56 C-18.02 293.98 -19.23 295.39 -20.44 296.81 C-27.58 304.88 -35.34 311.91 -43.81 318.56 C-44.69 319.27 -45.57 319.98 -46.48 320.71 C-64.25 334.6 -84.74 345.62 -105.81 353.56 C-106.65 353.9 -107.49 354.25 -108.36 354.6 C-112 356.07 -114.89 357.04 -118.81 356.56 C-120.76 354.95 -120.76 354.95 -122.5 352.81 C-123.08 352.12 -123.66 351.42 -124.26 350.7 C-126.96 346.98 -128.06 344.1 -128.38 339.5 C-128.45 338.54 -128.52 337.58 -128.6 336.59 C-128.74 334.57 -128.88 332.55 -129.02 330.54 C-129.1 329.58 -129.17 328.62 -129.25 327.62 C-129.31 326.75 -129.37 325.87 -129.43 324.97 C-129.83 322.46 -130.62 320.78 -131.81 318.56 C-132.25 316 -132.25 316 -131.81 313.56 C-128.21 310.97 -124.55 309.72 -120.31 308.5 C-116.38 307.36 -112.59 306.14 -108.81 304.56 C-107.41 303.99 -106.01 303.41 -104.61 302.84 C-103.07 302.2 -101.54 301.57 -100 300.94 C-99.21 300.61 -98.42 300.29 -97.61 299.95 C-95.68 299.16 -93.75 298.36 -91.81 297.56 C-95.32 298.41 -98.56 299.6 -101.91 300.94 C-103.81 301.56 -103.81 301.56 -106.81 301.56 C-107.14 302.22 -107.47 302.88 -107.81 303.56 C-110.38 304.37 -112.89 305.06 -115.5 305.69 C-116.56 305.96 -116.56 305.96 -117.65 306.24 C-121.79 307.26 -125.51 307.77 -129.81 307.56 C-132.12 303.68 -133.15 300.3 -133.91 295.83 C-134.09 294.84 -134.26 293.86 -134.43 292.84 C-134.56 292.09 -134.68 291.34 -134.81 290.56 C-136.59 307.22 -138.24 323.81 -138.81 340.56 C-148.02 343.5 -157.32 343.96 -166.38 340.29 C-170.73 338.99 -175.26 339.09 -179.77 338.97 C-182.81 338.56 -182.81 338.56 -184.71 337.27 C-187.11 333.55 -185.91 328.32 -185.38 324.12 C-184.81 321.56 -184.81 321.56 -183.81 320.56 C-183.81 319.24 -183.81 317.92 -183.81 316.56 C-183.15 316.56 -182.49 316.56 -181.81 316.56 C-182 315.61 -182.18 314.66 -182.38 313.69 C-182.81 310.56 -182.81 310.56 -181.81 308.56 C-181.42 305.9 -181.07 303.24 -180.75 300.56 C-180.66 299.83 -180.57 299.09 -180.47 298.33 C-179.99 294.46 -179.99 294.46 -179.81 290.56 C-179.94 291.37 -180.06 292.17 -180.19 293 C-180.39 293.85 -180.6 294.69 -180.81 295.56 C-181.47 295.89 -182.13 296.22 -182.81 296.56 C-183.07 298.61 -183.31 300.66 -183.5 302.71 C-184.12 308.4 -185.31 314.01 -186.38 319.62 C-186.61 320.87 -186.84 322.12 -187.08 323.4 C-187.66 326.46 -188.23 329.51 -188.81 332.56 C-196.14 332.68 -202.68 332.22 -209.81 330.56 C-210.28 318.2 -208.91 306.66 -206.81 294.5 C-206.5 292.61 -206.18 290.72 -205.86 288.83 C-202.79 270.69 -199.17 252.67 -195.27 234.68 C-194.85 232.72 -194.42 230.75 -194 228.78 C-189.45 207.59 -184.18 186.57 -178.96 165.54 C-173.47 143.38 -168.26 121.17 -163.62 98.81 C-163.13 96.43 -162.63 94.05 -162.13 91.66 C-161.81 90.12 -161.49 88.57 -161.17 87.03 C-160.23 82.53 -159.26 78.04 -158.26 73.55 C-156.31 64.48 -154.9 55.32 -153.44 46.16 C-148.54 15.66 -148.54 15.66 -140.81 9.56 C-135.58 6.17 -131.75 6.46 -125.81 6.88 C-117.53 7.15 -112.48 5.44 -105.53 0.86 C-75.18 -18.87 -29.42 -21.99 0 0 Z M-148.81 24.56 C-147.81 26.56 -147.81 26.56 -147.81 26.56 Z M-149.81 30.56 C-148.81 32.56 -148.81 32.56 -148.81 32.56 Z M-92.37 66.3 C-94.14 69.08 -94.63 71.43 -95.24 74.67 C-95.48 75.89 -95.71 77.11 -95.96 78.37 C-96.2 79.68 -96.44 81 -96.69 82.31 C-96.94 83.66 -97.2 85 -97.46 86.34 C-97.86 88.39 -98.25 90.44 -98.64 92.49 C-99.92 99.16 -101.29 105.8 -102.69 112.44 C-102.9 113.46 -103.12 114.49 -103.34 115.55 C-103.83 117.89 -104.32 120.23 -104.81 122.56 C-101.91 123.92 -101.91 123.92 -99.7 122.52 C-98.9 121.98 -98.1 121.44 -97.28 120.88 C-96.39 120.29 -95.5 119.69 -94.59 119.08 C-93.65 118.43 -92.72 117.79 -91.75 117.12 C-90.79 116.47 -89.84 115.82 -88.85 115.15 C-82.6 110.88 -76.55 106.5 -70.81 101.56 C-69.72 100.65 -68.63 99.74 -67.54 98.84 C-46.26 81.62 -46.26 81.62 -34.81 57.56 C-35.25 54.25 -36.13 52.55 -37.81 49.56 C-51.93 40.15 -82.37 55.17 -92.37 66.3 Z M-152.81 48.56 C-151.81 50.56 -151.81 50.56 -151.81 50.56 Z M-153.81 53.56 C-152.81 55.56 -152.81 55.56 -152.81 55.56 Z M-157.81 73.56 C-156.81 75.56 -156.81 75.56 -156.81 75.56 Z M-163.81 104.56 C-162.81 106.56 -162.81 106.56 -162.81 106.56 Z M-164.81 108.56 C-163.81 110.56 -163.81 110.56 -163.81 110.56 Z M-165.81 112.56 C-164.81 114.56 -164.81 114.56 -164.81 114.56 Z M-168.81 126.56 C-167.81 128.56 -167.81 128.56 -167.81 128.56 Z M-176.81 160.56 C-175.81 162.56 -175.81 162.56 -175.81 162.56 Z M-180.81 176.56 C-179.81 178.56 -179.81 178.56 -179.81 178.56 Z M-184.81 192.56 C-183.81 194.56 -183.81 194.56 -183.81 194.56 Z M-187.81 205.56 C-186.81 207.56 -186.81 207.56 -186.81 207.56 Z M-96.88 207.38 C-97.54 207.45 -98.21 207.52 -98.9 207.59 C-106 208.45 -111.91 211.43 -118.12 214.81 C-119.15 215.35 -120.18 215.9 -121.24 216.45 C-126.91 221.1 -126.86 231.16 -127.98 238.03 C-128.17 239.23 -128.37 240.42 -128.57 241.65 C-128.99 244.17 -129.4 246.69 -129.81 249.2 C-130.44 253.05 -131.07 256.89 -131.71 260.74 C-132.11 263.19 -132.51 265.64 -132.91 268.09 C-133.1 269.24 -133.3 270.38 -133.49 271.56 C-134.36 276.96 -135.05 282.09 -134.81 287.56 C-105.05 277.96 -69.52 262.4 -54.25 233.06 C-51.72 226.91 -50.65 221.05 -52.81 214.56 C-65.21 206.23 -82.56 205.61 -96.88 207.38 Z M-191.81 222.56 C-190.81 224.56 -190.81 224.56 -190.81 224.56 Z M-198.81 255.56 C-197.81 257.56 -197.81 257.56 -197.81 257.56 Z M-199.81 260.56 C-198.81 262.56 -198.81 262.56 -198.81 262.56 Z M-201.81 271.56 C-200.81 273.56 -200.81 273.56 -200.81 273.56 Z M-202.81 277.56 C-201.81 279.56 -201.81 279.56 -201.81 279.56 Z M-204.81 288.56 C-203.81 290.56 -203.81 290.56 -203.81 290.56 Z M-205.81 294.56 C-204.81 297.56 -204.81 297.56 -204.81 297.56 Z M-206.81 300.56 C-205.81 302.56 -205.81 302.56 -205.81 302.56 Z M-208.81 314.56 C-207.81 318.56 -207.81 318.56 -207.81 318.56 Z M-184.81 327.56 C-183.81 330.56 -183.81 330.56 -183.81 330.56 Z " fill="#E41317" transform="translate(215.8125,473.4375)"/>
<path d="M0 0 C1.03 0.45 2.06 0.89 3.12 1.36 C9.79 4.46 15.42 8.23 21 13 C21.74 13.59 22.48 14.19 23.24 14.8 C37.59 26.78 47.21 45.1 52.06 63 C52.54 64.73 52.54 64.73 53.04 66.5 C55.76 78.17 56.38 89.93 56.31 101.88 C56.31 102.57 56.31 103.27 56.31 103.99 C56.21 125.31 51.69 143.9 42 163 C41.44 164.11 40.88 165.22 40.3 166.36 C24.95 194.86 -2.07 219.68 -33 230 C-34.32 230 -35.64 230 -37 230 C-34.29 234.87 -30.92 239.18 -27.5 243.56 C-26.88 244.36 -26.26 245.16 -25.62 245.98 C-21.1 251.73 -16.38 257.17 -11.37 262.48 C-9.4 264.57 -7.53 266.69 -5.69 268.88 C1.55 277.22 9.58 285.17 18.02 292.29 C20.56 294.48 22.99 296.78 25.44 299.06 C30.01 303.24 34.71 306.79 40 310 C38.54 319.67 28.89 329.15 21.46 335 C18.93 337.06 17.14 339.15 15.19 341.75 C14.58 342.55 13.98 343.35 13.36 344.17 C12.91 344.78 12.46 345.38 12 346 C8.76 344.58 6.64 342.87 4.18 340.34 C3.48 339.63 2.78 338.92 2.06 338.19 C1.34 337.44 0.62 336.7 -0.12 335.94 C-1.56 334.47 -3 333 -4.45 331.53 C-5.08 330.87 -5.71 330.22 -6.37 329.55 C-7.93 327.91 -7.93 327.91 -10 327 C-7.13 332.74 -3.4 337.08 0.98 341.77 C3 344 3 344 5 347 C4.56 352.13 0.33 355.42 -3 359 C-3.72 359.85 -4.44 360.69 -5.19 361.56 C-6.08 362.27 -6.08 362.27 -7 363 C-10.35 362.61 -12.02 361.36 -14.36 359.01 C-15.28 358.08 -15.28 358.08 -16.23 357.14 C-16.87 356.47 -17.52 355.81 -18.19 355.12 C-18.86 354.45 -19.53 353.77 -20.22 353.07 C-24.73 348.44 -28.89 343.69 -32.89 338.61 C-35.18 335.78 -37.59 333.11 -40.06 330.44 C-43.82 326.34 -47.38 322.16 -50.81 317.78 C-52.46 315.68 -54.13 313.6 -55.81 311.53 C-61.11 305.01 -66.24 298.42 -71.07 291.55 C-74.6 286.54 -78.23 281.61 -81.88 276.69 C-87.15 269.56 -92.31 262.37 -97.36 255.08 C-98.55 253.37 -99.77 251.68 -101 250 C-101.33 250 -101.66 250 -102 250 C-107.96 283.89 -111.35 317.71 -114 352 C-123.23 354.73 -130.96 354.96 -140.07 351.8 C-146.53 350.04 -153.34 349.66 -160 349 C-161.03 344.28 -160.86 340.45 -160.12 335.69 C-159.94 334.45 -159.76 333.22 -159.57 331.95 C-159 329 -159 329 -158 328 C-158 327.24 -158 326.47 -158 325.69 C-158 323.16 -157.63 321.42 -157 319 C-155.83 313.02 -154.8 307.04 -154 301 C-154.66 300.67 -155.32 300.34 -156 300 C-156.09 300.77 -156.17 301.54 -156.26 302.33 C-157.37 311.39 -158.91 320.34 -160.56 329.31 C-160.78 330.52 -161.01 331.73 -161.24 332.98 C-161.55 334.69 -161.55 334.69 -161.88 336.43 C-162.17 337.96 -162.17 337.96 -162.46 339.53 C-163 342 -163 342 -164 344 C-170.79 344.22 -177.43 343.9 -184 342 C-186.93 336.15 -184.72 327.32 -183.88 321.06 C-183.68 319.59 -183.68 319.59 -183.48 318.09 C-176.63 268.81 -164.93 220.18 -153.62 171.78 C-145.64 137.66 -138.34 103.39 -131.62 69 C-131.46 68.16 -131.3 67.33 -131.13 66.47 C-129.51 58.15 -127.94 49.82 -126.54 41.46 C-126.43 40.8 -126.31 40.13 -126.2 39.45 C-125.69 36.44 -125.19 33.42 -124.72 30.39 C-123.6 23.62 -122.4 19.08 -117.18 14.36 C-116.61 13.97 -116.03 13.58 -115.44 13.19 C-114.86 12.79 -114.28 12.39 -113.68 11.98 C-110.08 9.88 -107.16 10.02 -103.1 10.22 C-95.04 10.54 -89.14 9.84 -81.75 6.49 C-73.8 2.91 -65.48 0.93 -57 -1 C-55.92 -1.25 -55.92 -1.25 -54.82 -1.5 C-37.62 -5.34 -16.38 -7.54 0 0 Z M-124 32 C-123 34 -123 34 -123 34 Z M-125 37 C-124 40 -124 40 -124 40 Z M-126 43 C-125 45 -125 45 -125 45 Z M-129 59 C-128 61 -128 61 -128 61 Z M-38.56 59.62 C-40 59.9 -40 59.9 -41.47 60.18 C-56.08 62.49 -56.08 62.49 -68 70 C-68.91 72.6 -68.91 72.6 -69.48 75.62 C-69.73 76.79 -69.98 77.95 -70.23 79.15 C-70.49 80.42 -70.74 81.69 -71 83 C-71.13 83.65 -71.26 84.3 -71.39 84.97 C-72.24 89.23 -73.06 93.5 -73.88 97.77 C-76.43 111.19 -79.12 124.56 -82.05 137.9 C-84.89 149.84 -84.89 149.84 -86 162 C-74.06 166.25 -60.84 166.94 -49 162 C-48.36 161.76 -47.73 161.51 -47.07 161.26 C-30.58 154.06 -18.26 139.09 -11.19 122.94 C-5.52 108.35 -5.24 91.21 -9 76 C-9.66 75.67 -10.32 75.34 -11 75 C-10.51 73.51 -10.51 73.51 -10 72 C-10.66 72 -11.32 72 -12 72 C-12.08 71.3 -12.16 70.6 -12.25 69.88 C-13.52 65.02 -15.84 61.77 -20 59 C-26.54 57.65 -32.06 58.36 -38.56 59.62 Z M-130 64 C-129 66 -129 66 -129 66 Z M-132 75 C-131 77 -131 77 -131 77 Z M-133 80 C-132 82 -132 82 -132 82 Z M-7 88 C-6 90 -6 90 -6 90 Z M-135 91 C-134 93 -134 93 -134 93 Z M-6 96 C-5 100 -5 100 -5 100 Z M-137 100 C-136 102 -136 102 -136 102 Z M-7 107 C-6 109 -6 109 -6 109 Z M-139 110 C-138 112 -138 112 -138 112 Z M-140 114 C-139 116 -139 116 -139 116 Z M-144 133 C-143 135 -143 135 -143 135 Z M-145 137 C-144 139 -144 139 -144 139 Z M-147 147 C-146 149 -146 149 -146 149 Z M-155 182 C-154 184 -154 184 -154 184 Z M-90 184 C-90 184.99 -90 185.98 -90 187 C-88.68 186.67 -87.36 186.34 -86 186 C-86.99 186 -87.98 186 -89 186 C-89.33 185.34 -89.66 184.68 -90 184 Z M-68 189 C-68 189.66 -68 190.32 -68 191 C-65.24 192.38 -63.05 192.19 -60 192 C-59.34 191.34 -58.68 190.68 -58 190 C-60.29 188.86 -61.59 188.9 -64.12 188.94 C-66.04 188.97 -66.04 188.97 -68 189 Z M-157 190 C-156 192 -156 192 -156 192 Z M-158 195 C-157 197 -157 197 -157 197 Z M-160 203 C-159 205 -159 205 -159 205 Z M-168 239 C-167 241 -167 241 -167 241 Z M-172 258 C-171 260 -171 260 -171 260 Z M-174 269 C-173 271 -173 271 -173 271 Z M-176 278 C-175 280 -175 280 -175 280 Z M-178 290 C-177 292 -177 292 -177 292 Z M-179 295 C-178 297 -178 297 -178 297 Z M-180 302 C-179 304 -179 304 -179 304 Z M-181 308 C-180 312 -180 312 -180 312 Z M-182 316 C-181 318 -181 318 -181 318 Z M-183 321 C-182 323 -182 323 -182 323 Z M-159 336 C-158 338 -158 338 -158 338 Z M-160 343 C-159 346 -159 346 -159 346 Z " fill="#E41317" transform="translate(1217,465)"/>
<path d="M0 0 C7.99 -0.21 13.44 3.27 19.38 8.39 C21.09 10.04 22.73 11.63 24.19 13.5 C24.19 14.16 24.19 14.82 24.19 15.5 C25.18 15.78 25.18 15.78 26.19 16.07 C30.5 18.13 33.7 21.27 37.19 24.5 C37.02 25.27 36.86 26.03 36.69 26.82 C36.1 29.54 36.1 29.54 36.19 32.5 C37.25 32.14 37.25 32.14 38.34 31.77 C42.29 31.4 43.66 32.79 46.75 35.19 C47.68 35.9 48.61 36.6 49.57 37.33 C56.05 42.71 56.05 42.71 56.61 45.92 C56.41 51 56.15 56.07 55.81 61.14 C55.13 71.5 55.03 81.82 55.06 92.19 C55.06 93.09 55.06 93.98 55.07 94.91 C55.08 109.79 55.35 124.66 55.83 139.54 C56.16 149.87 56.25 160.17 56.19 170.5 C56.19 171.18 56.18 171.85 56.18 172.54 C56.04 209.76 52.15 246.81 47.5 283.71 C44.11 310.86 43.3 338.19 42.19 365.5 C33.14 369.53 25.58 369.22 16.05 367.02 C9.84 365.91 3.48 365.8 -2.81 365.5 C-5.53 356.76 -4.63 344.5 -2.33 335.63 C-1.82 333.54 -1.52 331.53 -1.28 329.39 C-1.15 328.26 -1.15 328.26 -1.01 327.11 C-0.88 325.94 -0.88 325.94 -0.75 324.75 C-0.66 323.96 -0.57 323.17 -0.47 322.35 C-0.25 320.4 -0.03 318.45 0.19 316.5 C-0.14 316.5 -0.47 316.5 -0.81 316.5 C-3.02 327.92 -5.1 339.29 -6.22 350.87 C-6.91 358.04 -6.91 358.04 -7.81 360.5 C-11.25 362.22 -15.05 361.45 -18.81 361.25 C-19.65 361.23 -20.48 361.2 -21.34 361.17 C-22.13 361.13 -22.93 361.09 -23.75 361.05 C-24.48 361.02 -25.21 360.99 -25.96 360.95 C-27.81 360.5 -27.81 360.5 -29.81 357.5 C-30.78 346.69 -29.25 335.83 -27.81 325.13 C-27.71 324.32 -27.6 323.51 -27.49 322.68 C-24.51 299.87 -20.64 277.19 -16.81 254.5 C-17.42 254.56 -18.03 254.62 -18.66 254.68 C-21.48 254.95 -24.31 255.21 -27.13 255.47 C-28.09 255.56 -29.04 255.66 -30.03 255.75 C-38.86 256.57 -47.67 256.97 -56.53 257.22 C-59.9 257.64 -62.64 258.22 -65.81 259.5 C-67.39 261.87 -68.31 263.64 -69.29 266.24 C-69.57 266.93 -69.86 267.62 -70.15 268.34 C-71.08 270.63 -71.98 272.94 -72.88 275.25 C-73.52 276.87 -74.17 278.49 -74.82 280.11 C-76.87 285.22 -78.85 290.36 -80.81 295.5 C-81.13 296.34 -81.45 297.17 -81.78 298.03 C-88.49 315.54 -95.05 333.11 -100.33 351.11 C-102.24 357.45 -104.34 361.43 -109.5 365.75 C-118.57 370.54 -126.74 367.61 -136 364.82 C-137.24 364.46 -138.49 364.11 -139.77 363.75 C-148.72 361.13 -155.31 358.21 -160.81 350.5 C-161.62 347.63 -161.62 347.63 -161.81 345.5 C-162.14 345.5 -162.47 345.5 -162.81 345.5 C-163.03 339.87 -162.47 335.32 -160.61 329.97 C-160.26 328.92 -160.26 328.92 -159.9 327.85 C-159.13 325.56 -158.35 323.28 -157.56 321 C-157.02 319.4 -156.47 317.8 -155.93 316.19 C-150.57 300.5 -144.82 284.96 -138.81 269.5 C-138.45 268.56 -138.08 267.62 -137.7 266.65 C-125.47 235.39 -111.3 204.8 -96.79 174.54 C-95.8 172.47 -94.81 170.41 -93.82 168.34 C-86.86 153.75 -79.78 139.25 -72.14 125 C-68.86 118.83 -65.67 112.6 -62.45 106.39 C-56.77 95.43 -50.79 84.64 -44.75 73.88 C-43.55 71.74 -42.35 69.6 -41.15 67.46 C-40.58 66.45 -40.01 65.43 -39.42 64.38 C-38 61.84 -36.59 59.29 -35.18 56.74 C-32.87 52.58 -30.48 48.47 -28.06 44.38 C-27.63 43.65 -27.2 42.92 -26.76 42.16 C-23.6 36.82 -20.42 31.51 -17.22 26.2 C-13.8 20.51 -10.44 14.78 -7.09 9.05 C-6.49 8.03 -6.49 8.03 -5.88 6.99 C-5.53 6.39 -5.18 5.79 -4.81 5.17 C-2.04 0.57 -2.04 0.57 0 0 Z M-7.81 144.5 C-8.34 145.59 -8.34 145.59 -8.88 146.7 C-12.57 154.23 -16.6 161.48 -20.88 168.69 C-25.86 177.13 -25.86 177.13 -30.75 185.62 C-31.35 186.68 -31.35 186.68 -31.96 187.76 C-32.96 189.48 -32.96 189.48 -32.81 191.5 C-26.72 192.55 -21.84 192.29 -15.81 191.07 C-14.65 190.85 -14.65 190.85 -13.46 190.62 C-11.58 190.26 -9.7 189.88 -7.81 189.5 C-6.87 186.26 -6.62 183.23 -6.5 179.86 C-6.45 178.79 -6.41 177.72 -6.37 176.62 C-6.33 175.51 -6.29 174.4 -6.25 173.25 C-6.21 172.13 -6.16 171 -6.12 169.84 C-6.01 167.06 -5.91 164.28 -5.81 161.5 C-5.48 161.5 -5.15 161.5 -4.81 161.5 C-4.79 159.05 -4.77 156.59 -4.75 154.13 C-4.74 153.43 -4.73 152.73 -4.72 152.01 C-4.63 148.13 -4.63 148.13 -5.81 144.5 C-6.47 144.5 -7.13 144.5 -7.81 144.5 Z M-33.81 192.5 C-29.81 193.5 -29.81 193.5 -29.81 193.5 Z M-16.81 259.5 C-15.81 261.5 -15.81 261.5 -15.81 261.5 Z M-18.81 271.5 C-17.81 273.5 -17.81 273.5 -17.81 273.5 Z M-19.81 277.5 C-18.81 279.5 -18.81 279.5 -18.81 279.5 Z M-20.81 283.5 C-19.81 285.5 -19.81 285.5 -19.81 285.5 Z M-22.81 297.5 C-21.81 299.5 -21.81 299.5 -21.81 299.5 Z M-23.81 303.5 C-22.81 306.5 -22.81 306.5 -22.81 306.5 Z M-24.81 309.5 C-23.81 312.5 -23.81 312.5 -23.81 312.5 Z M-26.81 325.5 C-25.81 328.5 -25.81 328.5 -25.81 328.5 Z M-27.81 333.5 C-26.81 337.5 -26.81 337.5 -26.81 337.5 Z M-161.81 337.5 C-160.81 339.5 -160.81 339.5 -160.81 339.5 Z M-28.81 342.5 C-27.81 345.5 -27.81 345.5 -27.81 345.5 Z " fill="#E41317" transform="translate(962.8125,453.49609375)"/>
<path d="M0 0 C5.37 7.57 6.81 18.67 8.89 27.56 C9.5 30.13 10.15 32.39 11.14 34.85 C12 37 12 37 12 41 C11.01 41.99 11.01 41.99 10 43 C10.72 43.55 10.72 43.55 11.46 44.1 C15.57 47.37 18.03 49.63 19 55 C19.98 64.83 15.88 72.22 10.18 79.98 C7.38 83.87 4.76 87.87 2.12 91.88 C-1.95 98.04 -6.17 104.02 -10.67 109.89 C-13.47 113.62 -16.14 117.43 -18.81 121.25 C-22.78 126.91 -26.83 132.49 -31 138 C-36.2 144.88 -41.2 151.88 -46.15 158.94 C-47.89 161.42 -49.63 163.89 -51.41 166.34 C-63.17 182.56 -74.33 199.11 -83.79 216.78 C-85.03 219.06 -86.33 221.31 -87.64 223.55 C-97.47 240.33 -106.22 257.66 -115 275 C-115.34 275.68 -115.69 276.36 -116.04 277.06 C-118.22 281.37 -120.4 285.68 -122.56 290 C-123.1 291.08 -123.65 292.16 -124.2 293.27 C-124.7 294.25 -125.19 295.24 -125.69 296.25 C-126.12 297.1 -126.54 297.95 -126.98 298.83 C-128.1 301.1 -128.1 301.1 -129 304 C-127.82 303.86 -126.63 303.71 -125.41 303.56 C-118.76 302.82 -112.08 302.44 -105.4 302.03 C-104.35 301.96 -104.35 301.96 -103.28 301.9 C-97.98 301.57 -92.68 301.25 -87.38 300.94 C-86.6 300.89 -85.83 300.85 -85.03 300.8 C-65.94 299.67 -46.88 298.6 -27.75 298.69 C-26.98 298.69 -26.2 298.69 -25.41 298.7 C-4.78 298.81 -4.78 298.81 0 302 C1.7 312.82 -0.9 323.05 -3.81 333.41 C-4.97 337.6 -5.57 341.67 -6 346 C-15.09 345.43 -24 344.39 -33 343 C-33 343.66 -33 344.32 -33 345 C-31.99 345.12 -30.97 345.24 -29.93 345.37 C-28.58 345.54 -27.23 345.71 -25.88 345.88 C-25.21 345.95 -24.54 346.03 -23.86 346.11 C-18.94 346.74 -14.45 347.78 -10 350 C-9.56 357.52 -10.71 363.84 -13 371 C-19.27 370.56 -25.47 369.97 -31.69 369 C-49.81 366.36 -68.23 366.72 -86.5 366.69 C-87.56 366.68 -87.56 366.68 -88.63 366.68 C-110.95 366.63 -132.94 367.51 -155.11 370.29 C-160.45 370.96 -165.78 371.43 -171.14 371.8 C-173.22 371.95 -175.29 372.12 -177.37 372.31 C-181.52 372.66 -184.65 372.9 -188.2 370.53 C-192.52 365.97 -194.39 360.97 -196 355 C-196.33 354.34 -196.66 353.68 -197 353 C-196.42 350.26 -195.78 347.58 -195.06 344.88 C-194.87 344.12 -194.67 343.37 -194.47 342.59 C-193.99 340.72 -193.49 338.86 -193 337 C-193.33 337.99 -193.66 338.98 -194 340 C-194.66 340 -195.32 340 -196 340 C-196.66 342.97 -197.32 345.94 -198 349 C-206.11 348.48 -214.19 347.08 -220 341 C-217.91 333.35 -215.13 326.15 -212 318.88 C-211.52 317.74 -211.03 316.61 -210.53 315.44 C-198.7 287.9 -185.76 260.97 -170.74 235.01 C-168.87 231.77 -167.02 228.52 -165.16 225.28 C-159.42 215.23 -153.68 205.22 -147.31 195.55 C-144.25 190.89 -141.36 186.12 -138.44 181.38 C-133.77 173.81 -129.02 166.34 -124 159 C-123.16 157.76 -122.33 156.52 -121.49 155.29 C-116.26 147.56 -110.83 140.02 -105.2 132.58 C-101.98 128.32 -98.86 124 -95.82 119.6 C-92.13 114.33 -88.27 109.16 -84.45 103.97 C-81.61 100.11 -78.77 96.24 -75.94 92.37 C-73.81 89.47 -71.68 86.57 -69.53 83.68 C-68.8 82.69 -68.07 81.71 -67.31 80.69 C-66.67 79.83 -66.03 78.96 -65.36 78.07 C-63.82 76.14 -63.82 76.14 -64 74 C-65.05 73.96 -66.1 73.91 -67.18 73.86 C-126.9 71.27 -126.9 71.27 -153 66 C-154.77 65.65 -154.77 65.65 -156.57 65.29 C-166.25 63.13 -166.25 63.13 -170 59 C-172.54 54.69 -172.53 50.89 -172 46 C-171.27 43.2 -170.19 40.63 -169 38 C-168.69 37.28 -168.37 36.56 -168.05 35.82 C-167.39 34.31 -166.72 32.8 -166.04 31.29 C-165 29.01 -164 26.7 -163 24.4 C-154.81 5.91 -154.81 5.91 -148.11 3.25 C-144.89 2.87 -141.94 3.79 -138.79 4.48 C-98.57 12.99 -48.36 12.2 -9.3 -1.28 C-5.37 -2.14 -3.55 -1.86 0 0 Z M-61 9 C-57 10 -57 10 -57 10 Z M-51 300 C-51 300.33 -51 300.66 -51 301 C-47.04 301 -43.08 301 -39 301 C-39 300.67 -39 300.34 -39 300 C-42.96 300 -46.92 300 -51 300 Z M-18 300 C-18 300.33 -18 300.66 -18 301 C-16.02 301 -14.04 301 -12 301 C-12 300.67 -12 300.34 -12 300 C-13.98 300 -15.96 300 -18 300 Z M-87 302 C-87 302.33 -87 302.66 -87 303 C-85.02 303 -83.04 303 -81 303 C-81 302.67 -81 302.34 -81 302 C-82.98 302 -84.96 302 -87 302 Z M-178 303 C-178 303.66 -178 304.32 -178 305 C-178.99 305.5 -178.99 305.5 -180 306 C-180.66 308.53 -180.66 308.53 -181 311 C-178.1 308.6 -177.5 306.69 -177 303 C-177.33 303 -177.66 303 -178 303 Z M-100 303 C-100 303.33 -100 303.66 -100 304 C-98.35 304 -96.7 304 -95 304 C-95 303.67 -95 303.34 -95 303 C-96.65 303 -98.3 303 -100 303 Z M-130 304 C-129 306 -129 306 -129 306 Z M-120 304 C-120 304.33 -120 304.66 -120 305 C-117.69 305 -115.38 305 -113 305 C-113 304.67 -113 304.34 -113 304 C-115.31 304 -117.62 304 -120 304 Z " fill="#E41317" transform="translate(787,451)"/>
<path d="M0 0 C9.3 5.86 10.92 23.35 13.31 33.26 C14.01 36.43 14.5 39.58 14.88 42.81 C13.88 43.31 13.88 43.31 12.88 43.81 C13.36 44.25 13.84 44.68 14.34 45.13 C19.52 50.02 21.53 53.36 22.25 60.56 C21.99 68.73 17.76 75.39 13.05 81.79 C10.25 85.68 7.64 89.68 5 93.69 C0.92 99.85 -3.3 105.84 -7.79 111.71 C-10.59 115.44 -13.27 119.24 -15.94 123.06 C-19.9 128.72 -23.95 134.3 -28.12 139.81 C-32.8 145.99 -37.33 152.26 -41.77 158.62 C-44.46 162.48 -47.21 166.3 -49.99 170.1 C-60.91 185.08 -71.05 200.65 -80.12 216.81 C-80.71 217.86 -80.71 217.86 -81.32 218.92 C-83.35 222.54 -85.37 226.17 -87.37 229.8 C-89.18 233.1 -91 236.39 -92.82 239.68 C-99.78 252.3 -106.39 265.06 -112.8 277.96 C-114.35 281.07 -115.9 284.17 -117.45 287.27 C-118.44 289.26 -119.43 291.24 -120.42 293.23 C-120.88 294.15 -121.34 295.07 -121.81 296.02 C-122.23 296.87 -122.66 297.72 -123.09 298.6 C-123.46 299.34 -123.83 300.09 -124.21 300.85 C-125.23 302.95 -125.23 302.95 -126.12 305.81 C-124.94 305.67 -123.76 305.52 -122.54 305.37 C-115.88 304.64 -109.21 304.25 -102.52 303.84 C-101.47 303.77 -101.47 303.77 -100.41 303.71 C-95.1 303.38 -89.8 303.06 -84.5 302.75 C-83.73 302.7 -82.95 302.66 -82.15 302.61 C-63.06 301.48 -44 300.41 -24.88 300.5 C-24.1 300.5 -23.33 300.51 -22.53 300.51 C-1.9 300.63 -1.9 300.63 2.88 303.81 C4.57 314.64 1.97 324.86 -0.93 335.22 C-2.09 339.41 -2.69 343.49 -3.12 347.81 C-5.02 347.67 -6.92 347.52 -8.81 347.38 C-9.99 347.28 -11.16 347.19 -12.37 347.1 C-17.16 346.73 -21.95 346.36 -26.74 346 C-27.53 345.94 -28.31 345.87 -29.12 345.81 C-27.95 346.1 -26.77 346.39 -25.56 346.69 C-22.83 347.37 -20.14 348.1 -17.44 348.88 C-14.23 349.83 -14.23 349.83 -11.31 350.38 C-9.12 350.81 -9.12 350.81 -7.12 351.81 C-6.68 359.33 -7.84 365.65 -10.12 372.81 C-16.4 372.38 -22.6 371.78 -28.81 370.81 C-46.94 368.17 -65.35 368.53 -83.62 368.5 C-84.68 368.5 -84.68 368.5 -85.76 368.49 C-108.08 368.44 -130.07 369.32 -152.24 372.1 C-157.57 372.77 -162.91 373.24 -168.27 373.61 C-170.34 373.76 -172.42 373.93 -174.49 374.12 C-178.65 374.47 -181.77 374.71 -185.32 372.34 C-189.65 367.78 -191.51 362.78 -193.12 356.81 C-193.45 356.15 -193.79 355.49 -194.12 354.81 C-193.72 352.59 -193.23 350.38 -192.69 348.19 C-192.4 347 -192.11 345.81 -191.82 344.59 C-191.59 343.67 -191.36 342.76 -191.12 341.81 C-191.79 341.81 -192.44 341.81 -193.12 341.81 C-193.79 344.78 -194.44 347.75 -195.12 350.81 C-203.23 350.29 -211.32 348.89 -217.12 342.81 C-214.75 333.59 -210.96 324.96 -207.19 316.25 C-206.69 315.09 -206.69 315.09 -206.18 313.91 C-193.27 283.98 -178.62 254.93 -162.12 226.81 C-161.48 225.7 -160.83 224.6 -160.16 223.46 C-158.05 219.86 -155.93 216.27 -153.81 212.69 C-153.15 211.57 -152.5 210.46 -151.82 209.31 C-148.22 203.24 -144.53 197.24 -140.72 191.3 C-138.91 188.47 -137.13 185.62 -135.36 182.77 C-130.76 175.35 -126.03 168.03 -121.12 160.81 C-120.72 160.22 -120.32 159.62 -119.9 159 C-114.37 150.8 -108.65 142.77 -102.67 134.88 C-99.1 130.15 -95.65 125.35 -92.25 120.5 C-87.93 114.34 -83.53 108.24 -79.06 102.19 C-78.48 101.4 -77.9 100.61 -77.3 99.8 C-74.47 95.97 -71.64 92.16 -68.79 88.35 C-67.78 86.98 -66.76 85.62 -65.75 84.25 C-65.04 83.31 -65.04 83.31 -64.32 82.35 C-61.9 79.4 -61.9 79.4 -61.12 75.81 C-62.17 75.77 -63.22 75.72 -64.3 75.68 C-124.02 73.08 -124.02 73.08 -150.12 67.81 C-151.89 67.46 -151.89 67.46 -153.7 67.1 C-163.37 64.94 -163.37 64.94 -167.12 60.81 C-169.66 56.5 -169.65 52.7 -169.12 47.81 C-168.39 45.01 -167.32 42.45 -166.12 39.81 C-165.81 39.09 -165.5 38.37 -165.18 37.63 C-164.51 36.12 -163.84 34.61 -163.16 33.11 C-162.13 30.82 -161.13 28.52 -160.12 26.21 C-151.93 7.72 -151.93 7.72 -145.23 5.06 C-142.01 4.68 -139.07 5.61 -135.92 6.29 C-94.66 15.02 -46.55 12.75 -6.24 0.65 C-3.12 -0.19 -3.12 -0.19 0 0 Z M-58.12 10.81 C-54.12 11.81 -54.12 11.81 -54.12 11.81 Z M-48.12 301.81 C-48.12 302.14 -48.12 302.47 -48.12 302.81 C-44.16 302.81 -40.21 302.81 -36.12 302.81 C-36.12 302.48 -36.12 302.15 -36.12 301.81 C-40.09 301.81 -44.04 301.81 -48.12 301.81 Z M-15.12 301.81 C-15.12 302.14 -15.12 302.47 -15.12 302.81 C-13.14 302.81 -11.16 302.81 -9.12 302.81 C-9.12 302.48 -9.12 302.15 -9.12 301.81 C-11.11 301.81 -13.09 301.81 -15.12 301.81 Z M-84.12 303.81 C-84.12 304.14 -84.12 304.47 -84.12 304.81 C-82.14 304.81 -80.16 304.81 -78.12 304.81 C-78.12 304.48 -78.12 304.15 -78.12 303.81 C-80.11 303.81 -82.09 303.81 -84.12 303.81 Z M-175.12 304.81 C-175.12 305.47 -175.12 306.13 -175.12 306.81 C-176.12 307.31 -176.12 307.31 -177.12 307.81 C-177.78 309.84 -177.78 309.84 -178.12 311.81 C-177.13 312.31 -177.13 312.31 -176.12 312.81 C-174.25 308.94 -174.25 308.94 -175.12 304.81 Z M-97.12 304.81 C-97.12 305.14 -97.12 305.47 -97.12 305.81 C-95.48 305.81 -93.82 305.81 -92.12 305.81 C-92.12 305.48 -92.12 305.15 -92.12 304.81 C-93.77 304.81 -95.43 304.81 -97.12 304.81 Z M-127.12 305.81 C-126.12 307.81 -126.12 307.81 -126.12 307.81 Z M-117.12 305.81 C-117.12 306.14 -117.12 306.47 -117.12 306.81 C-114.81 306.81 -112.5 306.81 -110.12 306.81 C-110.12 306.48 -110.12 306.15 -110.12 305.81 C-112.44 305.81 -114.75 305.81 -117.12 305.81 Z M-179.12 311.81 C-178.12 313.81 -178.12 313.81 -178.12 313.81 Z M-213.12 332.81 C-212.12 334.81 -212.12 334.81 -212.12 334.81 Z " fill="#E41317" transform="translate(554.125,449.1875)"/>
<path d="M0 0 C0.85 0.11 1.7 0.22 2.57 0.33 C9.75 1.42 14.48 4.18 19.31 9.69 C19.9 10.34 20.48 10.98 21.08 11.65 C28.67 22.88 20.58 47.41 18.44 59.62 C18.03 61.99 17.62 64.35 17.22 66.71 C12.27 95.24 6.79 123.65 0.93 152.01 C-8.05 195.49 -16.09 239.23 -21.94 283.25 C-22.06 284.15 -22.18 285.04 -22.3 285.97 C-24.84 305.11 -26.61 324.27 -27.62 343.56 C-27.71 345.15 -27.8 346.74 -27.89 348.33 C-28.1 352.14 -28.3 355.94 -28.5 359.75 C-38.04 362.58 -46.47 362.79 -55.88 359.47 C-60.07 358.32 -64.29 358.28 -68.62 358.16 C-71.9 357.69 -73.33 357.26 -75.5 354.75 C-75.71 351.89 -75.71 351.89 -75.31 348.56 C-75.19 347.41 -75.06 346.26 -74.93 345.07 C-74.79 343.97 -74.65 342.88 -74.5 341.75 C-74.4 340.88 -74.3 340.01 -74.2 339.12 C-73.98 337.33 -73.75 335.54 -73.5 333.75 C-72.84 333.75 -72.18 333.75 -71.5 333.75 C-71.69 332.84 -71.87 331.93 -72.06 331 C-72.48 327.88 -72.3 326.66 -71.5 323.75 C-71.23 322.16 -70.98 320.58 -70.75 318.98 C-70.55 317.65 -70.55 317.65 -70.35 316.29 C-70.21 315.37 -70.08 314.45 -69.94 313.5 C-69.8 312.56 -69.66 311.63 -69.52 310.66 C-69.18 308.36 -68.84 306.05 -68.5 303.75 C-69.16 303.75 -69.82 303.75 -70.5 303.75 C-70.61 304.57 -70.73 305.38 -70.85 306.22 C-72.08 314.95 -73.38 323.66 -74.73 332.37 C-74.96 333.81 -75.18 335.25 -75.4 336.7 C-75.72 338.81 -76.05 340.93 -76.38 343.05 C-76.57 344.29 -76.76 345.53 -76.96 346.81 C-77.5 349.75 -77.5 349.75 -78.5 351.75 C-85.72 351.33 -92.55 350.8 -99.5 348.75 C-100.05 335.53 -98.37 322.97 -96.31 309.94 C-95.99 307.82 -95.66 305.71 -95.34 303.59 C-93.02 288.59 -90.54 273.63 -87.5 258.75 C-87.36 258.08 -87.23 257.42 -87.09 256.73 C-83.13 237.3 -78.9 217.93 -74.5 198.58 C-71.25 184.29 -68.2 169.95 -65.24 155.59 C-63.11 145.29 -60.91 135.03 -58.44 124.81 C-54.34 107.66 -51.48 90.22 -48.41 72.86 C-47.62 68.44 -46.83 64.02 -46.02 59.61 C-45.6 57.28 -45.17 54.95 -44.75 52.62 C-44.55 51.54 -44.36 50.45 -44.15 49.34 C-43.16 43.78 -42.26 38.22 -41.48 32.62 C-41.23 30.86 -41.23 30.86 -40.98 29.07 C-40.67 26.86 -40.38 24.65 -40.11 22.44 C-39.08 15.03 -37.32 7.16 -31.52 1.98 C-22.52 -4.25 -10.16 -1.37 0 0 Z M-37.5 13.75 C-36.5 15.75 -36.5 15.75 -36.5 15.75 Z M-38.5 18.75 C-37.5 20.75 -37.5 20.75 -37.5 20.75 Z M-40.5 33.75 C-39.5 35.75 -39.5 35.75 -39.5 35.75 Z M-41.5 39.75 C-40.5 41.75 -40.5 41.75 -40.5 41.75 Z M-42.5 44.75 C-41.5 47.75 -41.5 47.75 -41.5 47.75 Z M-43.5 52.75 C-42.5 54.75 -42.5 54.75 -42.5 54.75 Z M-44.5 57.75 C-43.5 59.75 -43.5 59.75 -43.5 59.75 Z M-46.5 67.75 C-45.5 69.75 -45.5 69.75 -45.5 69.75 Z M-48.5 79.75 C-47.5 81.75 -47.5 81.75 -47.5 81.75 Z M-49.5 84.75 C-48.5 86.75 -48.5 86.75 -48.5 86.75 Z M-51.5 95.75 C-50.5 97.75 -50.5 97.75 -50.5 97.75 Z M-53.5 104.75 C-52.5 106.75 -52.5 106.75 -52.5 106.75 Z M-57.5 123.75 C-56.5 125.75 -56.5 125.75 -56.5 125.75 Z M-61.5 141.75 C-60.5 143.75 -60.5 143.75 -60.5 143.75 Z M-74.5 201.75 C-73.5 203.75 -73.5 203.75 -73.5 203.75 Z M-80.5 228.75 C-79.5 230.75 -79.5 230.75 -79.5 230.75 Z M-84.5 247.75 C-83.5 249.75 -83.5 249.75 -83.5 249.75 Z M-86.5 258.75 C-85.5 260.75 -85.5 260.75 -85.5 260.75 Z M-88.5 267.75 C-87.5 269.75 -87.5 269.75 -87.5 269.75 Z M-89.5 274.75 C-88.5 276.75 -88.5 276.75 -88.5 276.75 Z M-91.5 285.75 C-90.5 287.75 -90.5 287.75 -90.5 287.75 Z M-92.5 291.75 C-91.5 293.75 -91.5 293.75 -91.5 293.75 Z M-94.5 304.75 C-93.5 306.75 -93.5 306.75 -93.5 306.75 Z M-95.5 310.75 C-94.5 313.75 -94.5 313.75 -94.5 313.75 Z M-97.5 324.75 C-96.5 327.75 -96.5 327.75 -96.5 327.75 Z M-98.5 332.75 C-97.5 336.75 -97.5 336.75 -97.5 336.75 Z M-74.5 348.75 C-73.5 351.75 -73.5 351.75 -73.5 351.75 Z " fill="#E41317" transform="translate(337.5,460.25)"/>
<path d="M0 0 C2.31 0 4.62 0 7 0 C7 0.33 7 0.66 7 1 C4.69 1 2.38 1 0 1 C0 0.67 0 0.34 0 0 Z " fill="#E41317" transform="translate(166,458)"/>
<path d="M0 0 C0.33 0 0.66 0 1 0 C1 1.65 1 3.3 1 5 C0.67 5 0.34 5 0 5 C0 3.35 0 1.7 0 0 Z " fill="#E41317" transform="translate(5,797)"/>
<path d="M0 0 C1 4 1 4 1 4 Z " fill="#E41317" transform="translate(237,803)"/>
<path d="M0 0 C4 1 4 1 4 1 Z " fill="#E41317" transform="translate(316,458)"/>
<path d="M0 0 C4 1 4 1 4 1 Z " fill="#E41317" transform="translate(963,453)"/>
<path d="M0 0 C3 1 3 1 3 1 Z " fill="#E41317" transform="translate(85,479)"/>
<path d="" fill="#E41317" transform="translate(0,0)"/>
<path d="" fill="#E41317" transform="translate(0,0)"/>
<path d="" fill="#E41317" transform="translate(0,0)"/>
</svg>
