<?xml version="1.0" encoding="UTF-8"?>
<!-- Generator: visioncortex VTracer 0.6.3 -->
<svg version="1.1" xmlns="http://www.w3.org/2000/svg" width="1280" height="1280">
<path d="M0 0 C1.42 0 1.42 0 2.86 0.01 C4.85 0.02 6.84 0.04 8.83 0.07 C11.89 0.11 14.95 0.13 18.01 0.14 C19.95 0.16 21.88 0.17 23.81 0.19 C25.19 0.2 25.19 0.2 26.6 0.21 C33.02 0.31 33.02 0.31 34.14 1.43 C34.52 6.77 33.63 10.57 31.64 15.51 C31.37 16.18 31.11 16.86 30.83 17.56 C30.25 19.02 29.66 20.48 29.07 21.94 C28.13 24.28 27.2 26.61 26.27 28.95 C25.28 31.45 24.3 33.95 23.3 36.44 C19.6 45.75 15.98 55.09 12.4 64.45 C11.34 67.2 10.28 69.95 9.21 72.7 C8.55 74.41 7.9 76.11 7.25 77.82 C6.95 78.59 6.65 79.36 6.34 80.15 C4.65 84.59 3.52 88.67 3.14 93.43 C4.78 95.07 6.68 94.57 8.95 94.59 C9.97 94.6 11 94.61 12.05 94.62 C13.73 94.62 13.73 94.62 15.44 94.63 C16.58 94.63 17.72 94.64 18.89 94.65 C21.32 94.66 23.74 94.66 26.16 94.67 C29.86 94.68 33.56 94.71 37.27 94.74 C39.61 94.74 41.96 94.75 44.31 94.75 C45.98 94.77 45.98 94.77 47.67 94.79 C48.71 94.79 49.75 94.79 50.82 94.78 C51.73 94.79 52.63 94.79 53.57 94.79 C56.74 94.34 58.58 93.34 61.14 91.43 C62.48 88.72 63.53 86.23 64.52 83.4 C64.95 82.22 64.95 82.22 65.4 81.02 C66.33 78.51 67.24 76 68.14 73.49 C69.33 70.18 70.54 66.88 71.77 63.59 C72.03 62.83 72.3 62.07 72.57 61.29 C74.26 56.73 75.84 54.07 80.14 51.43 C84.13 50.65 88.09 50.6 92.14 50.43 C87.93 62.65 83.56 74.78 78.92 86.85 C77.18 91.38 75.44 95.92 73.71 100.46 C73.34 101.43 72.97 102.39 72.59 103.38 C68.16 114.99 63.77 126.61 59.39 138.24 C58.54 140.49 57.69 142.74 56.85 144.98 C55.13 149.53 53.42 154.08 51.71 158.62 C47.52 169.73 43.33 180.83 39.14 191.93 C37.47 196.35 35.8 200.77 34.13 205.2 C33.51 206.84 33.51 206.84 32.88 208.51 C29.99 216.17 27.1 223.84 24.21 231.5 C15.73 253.99 7.24 276.48 -1.28 298.96 C-2.24 301.49 -3.19 304.01 -4.15 306.54 C-18.26 343.83 -18.26 343.83 -19.86 345.43 C-21.48 345.55 -23.11 345.6 -24.73 345.61 C-25.62 345.63 -26.5 345.64 -27.41 345.66 C-29.86 345.43 -29.86 345.43 -32.86 343.43 C-33.54 338.42 -31.98 334.36 -30.14 329.79 C-29.85 329.04 -29.56 328.3 -29.26 327.53 C-28.63 325.92 -28 324.31 -27.36 322.7 C-26.35 320.14 -25.35 317.58 -24.35 315.02 C-22.93 311.39 -21.51 307.75 -20.09 304.12 C-16.7 295.47 -13.33 286.82 -10 278.15 C-8.94 275.4 -7.86 272.65 -6.79 269.91 C-6.14 268.22 -5.48 266.52 -4.83 264.83 C-4.38 263.68 -4.38 263.68 -3.92 262.51 C-2.32 258.32 -1.52 254.99 -1.86 250.43 C-9.48 250.35 -17.09 250.3 -24.71 250.26 C-27.3 250.25 -29.89 250.23 -32.49 250.2 C-36.21 250.16 -39.93 250.15 -43.66 250.13 C-44.82 250.12 -45.98 250.1 -47.17 250.09 C-48.79 250.09 -48.79 250.09 -50.45 250.09 C-51.4 250.08 -52.35 250.07 -53.33 250.07 C-56.36 250.5 -57.67 251.32 -59.86 253.43 C-61.11 256.09 -62.16 258.64 -63.15 261.39 C-63.46 262.21 -63.76 263.02 -64.07 263.86 C-64.73 265.62 -65.38 267.38 -66.03 269.15 C-67.41 272.91 -68.82 276.66 -70.23 280.42 C-70.96 282.39 -71.7 284.35 -72.44 286.32 C-76.2 296.38 -80.07 306.4 -83.99 316.39 C-84.73 318.28 -85.47 320.17 -86.2 322.07 C-87.23 324.72 -88.27 327.36 -89.31 330.01 C-89.61 330.79 -89.91 331.57 -90.22 332.38 C-92.23 337.43 -94.19 341.86 -99.07 344.72 C-102.91 345.69 -106.57 345.73 -110.52 345.73 C-111.35 345.73 -112.17 345.74 -113.03 345.74 C-114.77 345.75 -116.51 345.75 -118.25 345.74 C-120.92 345.74 -123.58 345.76 -126.24 345.79 C-127.94 345.79 -129.64 345.79 -131.33 345.79 C-132.13 345.8 -132.92 345.81 -133.74 345.82 C-138.04 345.78 -140.75 345.55 -143.86 342.43 C-143.24 338.94 -142.34 335.76 -141.08 332.45 C-140.72 331.49 -140.35 330.52 -139.98 329.52 C-139.58 328.48 -139.18 327.44 -138.77 326.36 C-138.36 325.27 -137.95 324.18 -137.52 323.05 C-136.18 319.51 -134.83 315.97 -133.48 312.43 C-132.57 310.01 -131.65 307.59 -130.74 305.17 C-127.15 295.71 -123.56 286.26 -119.96 276.81 C-119.16 274.72 -118.37 272.62 -117.57 270.53 C-116.66 268.15 -115.76 265.78 -114.84 263.4 C-114.26 261.86 -114.26 261.86 -113.66 260.3 C-113.33 259.44 -113 258.58 -112.67 257.7 C-111.93 255.62 -111.35 253.57 -110.86 251.43 C-113.86 250.43 -115.85 250.3 -118.99 250.3 C-120.03 250.3 -121.08 250.29 -122.15 250.29 C-123.28 250.29 -124.41 250.29 -125.57 250.29 C-127.95 250.27 -130.34 250.25 -132.72 250.23 C-136.48 250.2 -140.24 250.18 -144 250.18 C-147.63 250.17 -151.26 250.14 -154.88 250.1 C-156.01 250.1 -157.13 250.11 -158.29 250.12 C-166.98 249.98 -166.98 249.98 -170.11 246.88 C-170.69 246.07 -171.26 245.26 -171.86 244.43 C-169.62 236.49 -166.89 228.77 -163.98 221.05 C-163.56 219.89 -163.14 218.73 -162.71 217.53 C-162.29 216.42 -161.86 215.3 -161.43 214.15 C-160.87 212.65 -160.87 212.65 -160.3 211.11 C-158.07 206.96 -155.29 204.9 -150.86 203.43 C-149.19 203.33 -147.52 203.28 -145.86 203.27 C-144.84 203.26 -143.82 203.25 -142.77 203.24 C-141.12 203.23 -141.12 203.23 -139.44 203.21 C-137.11 203.19 -134.78 203.16 -132.45 203.13 C-128.78 203.09 -125.11 203.05 -121.44 203.02 C-117.9 203 -114.35 202.95 -110.81 202.9 C-109.72 202.9 -108.63 202.9 -107.5 202.89 C-101.56 202.8 -96.98 202.57 -91.86 199.43 C-87.92 194.8 -86.07 189.28 -84 183.64 C-83.66 182.71 -83.31 181.78 -82.95 180.82 C-82.22 178.86 -81.5 176.9 -80.78 174.93 C-79.67 171.93 -78.56 168.94 -77.44 165.95 C-76.73 164.03 -76.02 162.12 -75.32 160.21 C-74.98 159.32 -74.65 158.43 -74.31 157.51 C-72.49 152.54 -70.86 147.79 -70.86 142.43 C-71.86 142.41 -71.86 142.41 -72.88 142.4 C-79.83 142.32 -86.77 142.22 -93.71 142.11 C-96.3 142.07 -98.89 142.04 -101.49 142 C-105.21 141.96 -108.93 141.9 -112.66 141.84 C-113.82 141.83 -114.98 141.82 -116.17 141.8 C-117.25 141.78 -118.33 141.77 -119.45 141.74 C-120.4 141.73 -121.35 141.72 -122.33 141.7 C-125.01 141.41 -126.64 140.95 -128.86 139.43 C-130.38 134.03 -129.58 130.52 -127.54 125.39 C-127.16 124.43 -127.16 124.43 -126.77 123.45 C-126.24 122.1 -125.69 120.75 -125.14 119.41 C-124.3 117.37 -123.5 115.33 -122.7 113.28 C-120.05 106.63 -117.7 100.89 -111.86 96.43 C-108.87 95.43 -106.87 95.29 -103.75 95.27 C-102.71 95.26 -101.67 95.25 -100.59 95.24 C-99.47 95.23 -98.34 95.22 -97.18 95.21 C-94.81 95.19 -92.43 95.16 -90.05 95.13 C-86.3 95.09 -82.54 95.05 -78.79 95.02 C-75.17 95 -71.55 94.95 -67.93 94.9 C-66.81 94.9 -65.7 94.9 -64.54 94.89 C-56.77 94.79 -56.77 94.79 -49.86 91.43 C-48.52 89.83 -48.52 89.83 -47.83 87.91 C-47.52 87.17 -47.21 86.44 -46.9 85.68 C-46.57 84.85 -46.25 84.03 -45.92 83.18 C-45.56 82.28 -45.19 81.39 -44.82 80.47 C-43.47 77.14 -42.16 73.78 -40.86 70.43 C-40.59 69.72 -40.32 69.02 -40.04 68.3 C-36.86 60.1 -33.71 51.88 -30.56 43.67 C-29 39.59 -27.43 35.51 -25.86 31.43 C-25.58 30.69 -25.3 29.96 -25.01 29.21 C-23.27 24.71 -21.51 20.22 -19.73 15.74 C-19.31 14.64 -18.89 13.53 -18.45 12.4 C-18.04 11.39 -17.64 10.39 -17.23 9.35 C-16.89 8.49 -16.55 7.63 -16.2 6.74 C-12.2 -0.16 -7.26 -0.14 0 0 Z M-19.86 146.43 C-21.76 149.98 -23.19 153.65 -24.6 157.42 C-25.01 158.49 -25.43 159.55 -25.85 160.65 C-26.72 162.9 -27.58 165.15 -28.43 167.41 C-29.73 170.86 -31.06 174.29 -32.4 177.72 C-33.24 179.91 -34.08 182.11 -34.91 184.3 C-35.31 185.32 -35.71 186.35 -36.12 187.4 C-38.76 194.21 -38.76 194.21 -38.86 201.43 C-36.31 203.97 -35.38 203.69 -31.85 203.72 C-30.8 203.73 -29.76 203.74 -28.68 203.75 C-27.55 203.76 -26.41 203.76 -25.25 203.76 C-24.08 203.77 -22.92 203.78 -21.73 203.78 C-19.26 203.79 -16.8 203.8 -14.34 203.8 C-10.57 203.8 -6.81 203.84 -3.04 203.88 C-0.65 203.88 1.74 203.88 4.13 203.89 C5.26 203.9 6.38 203.92 7.54 203.93 C13.64 203.92 13.64 203.92 19.23 201.74 C21.32 199.21 22.52 197.02 23.72 193.97 C24.15 192.89 24.59 191.81 25.04 190.69 C25.48 189.53 25.93 188.37 26.39 187.18 C26.86 185.98 27.33 184.79 27.82 183.57 C28.79 181.09 29.75 178.61 30.71 176.13 C32.09 172.56 33.49 169 34.89 165.45 C35.73 163.29 36.56 161.14 37.39 158.99 C37.79 157.98 38.18 156.98 38.59 155.94 C38.94 155.01 39.29 154.08 39.66 153.12 C39.97 152.3 40.28 151.49 40.6 150.65 C41.23 148.04 41.3 146.86 40.14 144.43 C35.62 140.28 29.92 140.96 24.14 140.96 C22.55 140.95 22.55 140.95 20.91 140.93 C18.66 140.92 16.41 140.92 14.16 140.92 C10.72 140.93 7.28 140.88 3.84 140.84 C1.65 140.83 -0.54 140.83 -2.73 140.83 C-3.76 140.82 -4.78 140.8 -5.84 140.78 C-11.72 140.84 -16.26 141.29 -19.86 146.43 Z " fill="#000100" transform="translate(639.859375,468.57421875)"/>
<path d="M0 0 C0.33 0.33 0.66 0.66 1 1 C0.55 6.15 -0.77 10.47 -2.69 15.25 C-2.95 15.92 -3.21 16.58 -3.48 17.27 C-4.31 19.37 -5.16 21.47 -6 23.56 C-6.84 25.66 -7.68 27.77 -8.52 29.87 C-9.27 31.78 -10.04 33.68 -10.8 35.58 C-11.91 38.75 -12.57 41.68 -13 45 C-9.7 47.2 -8.7 47.25 -4.86 47.26 C-3.29 47.27 -3.29 47.27 -1.68 47.28 C-0.55 47.28 0.58 47.27 1.75 47.27 C4.13 47.29 6.52 47.31 8.91 47.34 C12.68 47.36 16.45 47.38 20.22 47.38 C23.85 47.39 27.49 47.42 31.12 47.46 C32.25 47.46 33.38 47.45 34.54 47.45 C35.59 47.46 36.65 47.47 37.73 47.49 C38.65 47.49 39.58 47.49 40.53 47.49 C43.8 48.16 45.03 49.35 47 52 C46.19 59.47 43.15 66.46 40.42 73.42 C39.68 75.32 38.97 77.23 38.25 79.13 C37.78 80.34 37.31 81.55 36.82 82.8 C36.4 83.9 35.98 84.99 35.55 86.12 C33.56 89.82 31.23 92.28 27.16 93.59 C24.69 94.06 22.38 94.14 19.87 94.16 C18.85 94.17 17.82 94.18 16.77 94.19 C15.67 94.2 14.58 94.2 13.45 94.21 C11.12 94.24 8.79 94.27 6.46 94.3 C2.79 94.34 -0.88 94.38 -4.55 94.4 C-8.09 94.43 -11.64 94.47 -15.18 94.52 C-16.27 94.53 -17.37 94.53 -18.49 94.53 C-24.02 94.62 -28.33 94.72 -33 98 C-35.25 100.68 -36.65 103.23 -37.9 106.49 C-38.24 107.37 -38.58 108.25 -38.93 109.16 C-39.29 110.11 -39.64 111.05 -40.01 112.02 C-40.38 113 -40.76 113.98 -41.14 114.99 C-41.93 117.06 -42.71 119.13 -43.49 121.2 C-44.68 124.36 -45.89 127.52 -47.1 130.67 C-47.87 132.68 -48.63 134.7 -49.39 136.71 C-49.75 137.65 -50.11 138.59 -50.49 139.56 C-52.99 146.09 -52.99 146.09 -53 153 C-49.74 155.17 -48.81 155.25 -45.04 155.27 C-44.03 155.28 -43.03 155.29 -41.99 155.3 C-40.36 155.31 -40.36 155.31 -38.69 155.31 C-36.4 155.33 -34.1 155.36 -31.8 155.38 C-28.18 155.41 -24.55 155.44 -20.93 155.46 C-17.43 155.48 -13.94 155.52 -10.44 155.56 C-9.36 155.56 -8.27 155.56 -7.15 155.56 C-5.64 155.58 -5.64 155.58 -4.09 155.6 C-3.2 155.6 -2.31 155.61 -1.4 155.61 C1.52 156.08 2.9 156.94 5 159 C5.6 164.08 4.61 167.89 2.77 172.6 C2.06 174.42 2.06 174.42 1.33 176.28 C1.08 176.9 0.83 177.52 0.57 178.16 C-0.18 180.05 -0.92 181.96 -1.65 183.86 C-7.34 198.22 -7.34 198.22 -13.31 201.12 C-16.18 202.06 -18.43 202.26 -21.45 202.27 C-22.51 202.28 -23.57 202.29 -24.67 202.3 C-25.81 202.3 -26.95 202.31 -28.12 202.31 C-30.55 202.33 -32.97 202.36 -35.39 202.38 C-39.2 202.41 -43.01 202.44 -46.83 202.46 C-50.51 202.48 -54.19 202.52 -57.88 202.56 C-59.58 202.56 -59.58 202.56 -61.33 202.56 C-62.93 202.58 -62.93 202.58 -64.55 202.6 C-65.95 202.61 -65.95 202.61 -67.38 202.61 C-70.66 203.1 -72.4 203.93 -75 206 C-76.72 208.92 -76.72 208.92 -77.99 212.36 C-78.24 212.98 -78.49 213.6 -78.75 214.24 C-79.51 216.15 -80.26 218.07 -81 220 C-81.44 221.11 -81.88 222.21 -82.33 223.35 C-83.64 226.66 -84.92 229.98 -86.19 233.31 C-86.9 235.16 -87.61 237.01 -88.32 238.86 C-89.3 241.41 -90.28 243.96 -91.26 246.51 C-92.49 249.71 -93.72 252.91 -94.95 256.1 C-95.3 257.04 -95.3 257.04 -95.67 257.99 C-97.3 262.22 -98.93 266.44 -100.56 270.66 C-102.01 274.42 -103.44 278.18 -104.85 281.95 C-105.36 283.29 -105.87 284.63 -106.38 285.97 C-106.77 287.05 -107.17 288.13 -107.59 289.23 C-109.79 293.55 -112.37 296.46 -117 298 C-119.74 298.07 -122.45 298.09 -125.19 298.06 C-125.94 298.06 -126.69 298.05 -127.46 298.05 C-129.31 298.04 -131.15 298.02 -133 298 C-134.28 294.17 -133.49 293.03 -132.03 289.31 C-131.31 287.47 -131.31 287.47 -130.59 285.6 C-130.32 284.93 -130.05 284.26 -129.78 283.57 C-128.6 280.57 -127.43 277.57 -126.27 274.57 C-125.61 272.87 -124.95 271.18 -124.29 269.48 C-120.13 258.8 -116.08 248.08 -112.02 237.36 C-110.84 234.27 -109.67 231.17 -108.5 228.08 C-98.84 202.62 -89.24 177.15 -79.64 151.67 C-71.2 129.26 -62.75 106.85 -54.3 84.44 C-53.05 81.13 -51.8 77.82 -50.55 74.51 C-45.71 61.67 -40.86 48.83 -36 36 C-35.68 35.15 -35.35 34.29 -35.02 33.41 C-33.14 28.45 -31.25 23.48 -29.37 18.52 C-28.79 17.02 -28.22 15.52 -27.66 14.02 C-26.89 12 -26.12 9.98 -25.34 7.95 C-24.91 6.82 -24.48 5.69 -24.04 4.52 C-23 2 -23 2 -22 1 C-14.72 0.2 -7.32 -0.29 0 0 Z " fill="#000100" transform="translate(766,516)"/>
</svg>
